# xmcd CD database file
#
# Track frame offsets:
#	182
#	59225
#	115850
#	159300
#	188325
#	220650
#	288975
#	302032
#	321237
#
# Disc length: 4487 seconds
#
# Revision: 0
# Processed by: cddbd v1.5.1PL0 Copyright (c) Steve Scherf et al.
# Submitted via: CDex 1.60beta1
#
DISCID=7c118509
DTITLE=Jon Jang And The Pan Asian Arkestra - Self Defense!
DYEAR=0
DGENRE=Jazz
TTITLE0=A Night In Tunisia
TTITLE1=Never Give Up
TTITLE2=Butterfly Lovers Song
TTITLE3=Concerto For Jazz Ensemble And Taiko: Redress
TTITLE4=Concerto For Jazz Ensemble And Taiko: Ganbaro!
TTITLE5=Concerto For Jazz Ensemble And Taiko: Reparations Now!
TTITLE6=Concerto For Jazz Ensemble And Taiko: Tanko Bushi Celebration
TTITLE7=Monk's Strut
TTITLE8=Ichikotsu - Cho
EXTD=YEAR: 0
EXTT0=
EXTT1=
EXTT2=
EXTT3=
EXTT4=
EXTT5=
EXTT6=
EXTT7=
EXTT8=
PLAYORDER=
